# xmcd CD database file
#
# Track frame offsets:
#	150
#	18303
#	35636
#	55039
#	73198
#	87636
#	104792
#	121149
#	139978
#	157409
#	176990
#	195523
#	212249
#	228958
#	246508
#	264025
#
# Disc length: 3747 seconds
#
# Revision: 2
# Processed by: cddbd v1.5.2PL0 Copyright (c) Steve Scherf et al.
# Submitted via: CDex 1.51
#
DISCID=f40ea110
DTITLE=Various Artist - ZM-PCP-29
DYEAR=1900
DGENRE=Blues
TTITLE0=Jess Glynne -  Hold My Hand
TTITLE1=Jessie J -  Masterpiece
TTITLE2=Madonna -  Joan Of Arc
TTITLE3=Selena Gomez -  The Heart Wants What It Wants
TTITLE4=Avicii -  The Nights
TTITLE5=Madonna -  Hold Tight
TTITLE6=Marlon Roudette -  When The Beat Drops Out
TTITLE7=OneRepublic -  I Lived
TTITLE8=Ella Henderson -  Mirror Man
TTITLE9=The Weeknd -  Earned It
TTITLE10=James Bay -  Hold Back The River
TTITLE11=Kelly Clarkson -  Heartbeat Song
TTITLE12=McBusted -  Get Over It
TTITLE13=Sam Smith -  Lay Me Down
TTITLE14=Sam Smith And John Legend -  Lay Me Down
TTITLE15=Years And Years -  King
EXTD=
EXTT0=
EXTT1=
EXTT2=
EXTT3=
EXTT4=
EXTT5=
EXTT6=
EXTT7=
EXTT8=
EXTT9=
EXTT10=
EXTT11=
EXTT12=
EXTT13=
EXTT14=
EXTT15=
PLAYORDER=
